<svg width="117" height="117" viewBox="0 0 117 117" fill="none" xmlns="http://www.w3.org/2000/svg">
<path d="M62.18 -3.97656H30.3516V3.36341H62.18V-3.97656Z" fill="#221E20"/>
<path d="M51.2686 6.63477H30.3516V13.9747H51.2686V6.63477Z" fill="#221E20"/>
<path d="M42.3923 17.2383H30.3516V24.5783H42.3923V17.2383Z" fill="#221E20"/>
<path opacity="0.2" d="M62.18 -3.97656H30.3516V3.36341H62.18V-3.97656Z" fill="#221E20"/>
<path opacity="0.2" d="M51.2686 6.63477H30.3516V13.9747H51.2686V6.63477Z" fill="#221E20"/>
<path opacity="0.2" d="M42.3923 17.2383H30.3516V24.5783H42.3923V17.2383Z" fill="#221E20"/>
<path d="M1.46129 84.9258H-9.33203V99.4482H1.46129V84.9258Z" fill="#221E20"/>
<path d="M17.0629 91.0938H6.26953V99.4579H17.0629V91.0938Z" fill="#221E20"/>
<path opacity="0.2" d="M1.46129 84.9258H-9.33203V99.4482H1.46129V84.9258Z" fill="#221E20"/>
<path opacity="0.2" d="M17.0629 91.0938H6.26953V99.4579H17.0629V91.0938Z" fill="#221E20"/>
<path d="M103.357 116.179H-27.3311C-29.1249 116.183 -30.9017 115.832 -32.56 115.148C-34.2182 114.464 -35.7253 113.46 -36.9949 112.193C-38.2645 110.925 -39.2718 109.42 -39.959 107.763C-40.6463 106.106 -41 104.33 -41 102.536V-5.35735C-40.9931 -8.97347 -39.5535 -12.4395 -36.9965 -14.9965C-34.4395 -17.5535 -30.9735 -18.9931 -27.3574 -19H103.331C105.124 -19.0017 106.9 -18.6502 108.558 -17.9655C110.215 -17.2809 111.722 -16.2764 112.991 -15.0096C114.26 -13.7428 115.268 -12.2383 115.955 -10.5822C116.643 -8.92605 116.998 -7.15065 117 -5.35735V102.536C117 106.155 115.563 109.625 113.004 112.183C110.446 114.742 106.976 116.179 103.357 116.179ZM-27.3311 -17.7526C-30.6303 -17.7456 -33.7924 -16.432 -36.1253 -14.0991C-38.4582 -11.7661 -39.7719 -8.60404 -39.7789 -5.30482V102.589C-39.7719 105.888 -38.4582 109.05 -36.1253 111.383C-33.7924 113.716 -30.6303 115.03 -27.3311 115.037H103.357C106.657 115.03 109.819 113.716 112.152 111.383C114.485 109.05 115.798 105.888 115.805 102.589V-5.35735C115.798 -8.65657 114.485 -11.8187 112.152 -14.1516C109.819 -16.4845 106.657 -17.7982 103.357 -17.8051L-27.3311 -17.7526Z" fill="#221E20"/>
<path d="M101.678 77.9336H55.0781V79.1285H101.678V77.9336Z" fill="#221E20"/>
<path d="M101.678 82.9336H55.0781V84.1285H101.678V82.9336Z" fill="#221E20"/>
<path d="M101.678 87.918H55.0781V89.1129H101.678V87.918Z" fill="#221E20"/>
<path d="M101.678 92.9102H55.0781V94.105H101.678V92.9102Z" fill="#221E20"/>
<path d="M101.678 97.9004H55.0781V99.0953H101.678V97.9004Z" fill="#221E20"/>
<path d="M20.2566 1.50781H-26.3438V2.70269H20.2566V1.50781Z" fill="#221E20"/>
<path d="M20.2566 6.50391H-26.3438V7.69879H20.2566V6.50391Z" fill="#221E20"/>
<path d="M20.2566 11.4883H-26.3438V12.6832H20.2566V11.4883Z" fill="#221E20"/>
<path d="M20.2566 16.4844H-26.3438V17.6793H20.2566V16.4844Z" fill="#221E20"/>
<path d="M92.4705 36.8308L100.822 41.2164L99.863 17.6602L79.944 30.2655L88.295 34.638L82.0055 46.5999C80.897 46.5986 79.82 46.9684 78.9461 47.6504L67.8507 42.5163V42.4506C67.8985 41.1121 67.4172 39.8085 66.511 38.8222C65.6048 37.8359 64.3466 37.2461 63.0088 37.1805C61.671 37.1149 60.3612 37.5787 59.3628 38.4717C58.3645 39.3647 57.758 40.6149 57.6745 41.9517C57.6614 42.1178 57.6614 42.2846 57.6745 42.4506C57.6813 43.1794 57.8377 43.8989 58.1341 44.5647L43.6905 60.3213C43.2273 60.1758 42.7448 60.1006 42.2593 60.0981C42.0077 60.0983 41.7569 60.1247 41.5108 60.1769L20.712 33.7714C21.1873 32.5504 21.1726 31.1931 20.671 29.9828C20.1695 28.7724 19.2198 27.8026 18.0203 27.2756C16.8207 26.7487 15.464 26.7055 14.2334 27.1549C13.0027 27.6044 11.9932 28.5118 11.4156 29.6878C11.1281 30.323 10.9803 31.0126 10.9823 31.7099C10.9982 32.2316 11.0866 32.7487 11.2449 33.2461L-12.4558 57.5377C-13.3986 57.1975 -14.4209 57.1438 -15.3941 57.3832C-16.3674 57.6227 -17.2481 58.1446 -17.9255 58.8833C-18.6029 59.622 -19.0467 60.5445 -19.2011 61.5348C-19.3555 62.5251 -19.2135 63.539 -18.7932 64.4489C-18.3728 65.3587 -17.6928 66.1239 -16.8387 66.6483C-15.9845 67.1726 -14.9943 67.4327 -13.9927 67.3957C-12.9911 67.3587 -12.0229 67.0264 -11.2097 66.4405C-10.3965 65.8546 -9.77473 65.0413 -9.4226 64.1029C-9.22374 63.5421 -9.12162 62.9516 -9.12061 62.3566C-9.11918 61.9392 -9.17665 61.5237 -9.29131 61.1223L14.672 36.5288C15.142 36.6849 15.6341 36.7647 16.1295 36.7651C16.4426 36.7671 16.755 36.7363 17.0617 36.6732L37.7424 62.9343C37.0929 64.1323 36.9459 65.5392 37.3337 66.8455C37.7216 68.1519 38.6125 69.2506 39.8104 69.9001C41.0084 70.5495 42.4153 70.6965 43.7216 70.3087C45.028 69.9209 46.1267 69.03 46.7762 67.832C47.1431 67.1658 47.3541 66.425 47.3933 65.6655C47.4065 65.495 47.4065 65.3238 47.3933 65.1534C47.3853 64.6223 47.2968 64.0954 47.1307 63.5909L61.9157 47.4928C62.1972 47.5451 62.4829 47.5714 62.7692 47.5716C63.7797 47.5711 64.7672 47.2694 65.6054 46.705L76.8977 51.9572C76.9183 52.6315 77.0731 53.295 77.3528 53.909C77.6326 54.5229 78.0319 55.075 78.5273 55.533C79.0227 55.991 79.6043 56.3458 80.2383 56.5766C80.8723 56.8075 81.5459 56.9097 82.2198 56.8775C82.8937 56.8452 83.5545 56.6791 84.1635 56.3887C84.7725 56.0984 85.3176 55.6897 85.767 55.1865C86.2164 54.6833 86.5611 54.0956 86.781 53.4577C87.0008 52.8199 87.0915 52.1446 87.0476 51.4714C86.9982 50.5283 86.6842 49.6182 86.1416 48.8452L92.4705 36.8308Z" fill="#221E20"/>
</svg>
